<svg width="98" height="91" viewBox="0 0 98 91" fill="none" xmlns="http://www.w3.org/2000/svg">
<path d="M10.22 50.1294V81.0495C10.22 86.4495 14.6 90.8295 20 90.8295H78.55C83.95 90.8295 88.33 86.4495 88.33 81.0495V54.7095C88.33 50.0395 84.99 46.0795 80.4 45.1695C75.68 44.2295 70.07 42.1695 67.18 37.7295C66.65 36.9095 66.0799 36.1195 65.3499 35.4695C63.6499 33.9695 60.33 31.8595 55.3 32.2695C52.14 32.5295 49.59 31.3995 47.7 29.9795C44.54 27.6095 40.3099 27.2695 36.8799 29.2295L15.14 41.6395C12.1 43.3795 10.22 46.6194 10.22 50.1294Z" fill="url(#paint0_linear_65_160)"/>
<path d="M70.64 17.7499C62.67 13.7299 54.36 15.2998 45.77 19.7098C45.57 19.8098 45.38 19.9098 45.18 20.0198C45.29 20.3198 45.42 20.5998 45.55 20.8798C47.09 24.0198 49.99 25.4598 53.45 25.2898C60.24 24.9498 65.27 27.5898 69.36 32.8598C73.43 38.1098 79.3299 39.0198 85.38 38.2898C88.18 37.9498 90.97 37.4398 93.86 36.8498C97.76 36.0598 99.07 31.1098 96.04 28.5298C94.63 27.3298 93.24 26.1898 91.79 25.1398C81.36 17.5398 70.83 10.0799 60.21 2.74986C55.56 -0.470141 50.6 -0.630151 45.65 2.48985C35.27 9.02985 13.81 19.5298 3.10997 26.2298C-2.05003 29.4598 2.41997 37.4298 7.79997 34.5698C7.84997 34.5398 38.1 20.2799 47.51 14.9299C56.82 9.62985 63.47 11.2198 70.92 16.9798C72.83 18.4198 72.73 18.7999 70.64 17.7499Z" fill="url(#paint1_linear_65_160)"/>
<path d="M38.5399 58.5895H48.4499V48.9795H48.2799C42.9699 48.9795 38.6199 53.2995 38.5399 58.5895Z" fill="white"/>
<path d="M50.2899 48.9795H50.1099V58.5895H60.0199C59.9499 53.2995 55.5999 48.9795 50.2899 48.9795Z" fill="white"/>
<path d="M50.1099 60.1895V69.7995H58.9699C59.5499 69.7995 60.0299 69.3195 60.0299 68.7395V60.1895H50.1099Z" fill="white"/>
<path d="M38.5399 68.7395C38.5399 69.3195 39.0199 69.7995 39.5999 69.7995H48.4599V60.1895H38.5499V68.7395H38.5399Z" fill="white"/>
<defs>
<linearGradient id="paint0_linear_65_160" x1="10.2212" y1="59.3905" x2="88.3341" y2="59.3905" gradientUnits="userSpaceOnUse">
<stop stop-color="#8AC441"/>
<stop offset="0.00653561" stop-color="#8AC441"/>
<stop offset="0.9909" stop-color="#57BC82"/>
</linearGradient>
<linearGradient id="paint1_linear_65_160" x1="0.837967" y1="19.3596" x2="97.7172" y2="19.3596" gradientUnits="userSpaceOnUse">
<stop stop-color="#8AC441"/>
<stop offset="0.00653561" stop-color="#8AC441"/>
<stop offset="0.9909" stop-color="#57BC82"/>
</linearGradient>
</defs>
</svg>
