<?xml version="1.0" standalone="no"?>
<!DOCTYPE svg PUBLIC "-//W3C//DTD SVG 20010904//EN"
 "http://www.w3.org/TR/2001/REC-SVG-20010904/DTD/svg10.dtd">
<svg version="1.0" xmlns="http://www.w3.org/2000/svg"
 width="700.000000pt" height="700.000000pt" viewBox="0 0 700.000000 700.000000"
 preserveAspectRatio="xMidYMid meet">
<metadata>
Created by potrace 1.14, written by Peter Selinger 2001-2017
</metadata>
<g transform="translate(0.000000,700.000000) scale(0.100000,-0.100000)"
fill="#000000" stroke="none">
<path d="M3597 6749 c-100 -20 -210 -60 -280 -101 -26 -15 -49 -28 -51 -28 -2
0 -46 -26 -97 -59 -85 -53 -221 -133 -338 -199 -90 -50 -146 -83 -161 -92 -8
-6 -22 -13 -30 -17 -8 -3 -49 -25 -90 -48 -41 -23 -100 -56 -130 -72 -30 -16
-203 -110 -385 -207 -181 -98 -368 -199 -415 -224 -47 -25 -119 -63 -160 -85
-68 -37 -437 -237 -570 -310 -425 -232 -722 -411 -787 -472 -75 -70 -103 -142
-99 -248 10 -225 216 -389 416 -331 30 9 124 49 209 90 84 41 154 74 156 74 2
0 83 39 181 86 99 48 224 108 279 134 406 194 679 327 1210 591 476 236 693
349 895 462 165 93 333 165 472 202 124 33 179 40 328 39 277 -2 509 -89 820
-308 105 -73 190 -144 190 -158 0 -15 -36 -4 -134 42 -125 59 -208 88 -321
115 -135 32 -205 40 -365 40 -173 0 -303 -16 -455 -56 -22 -6 -47 -13 -55 -14
-95 -22 -322 -110 -492 -192 l-137 -66 26 -51 c78 -155 185 -251 335 -300 64
-21 134 -28 317 -31 196 -3 280 -15 421 -61 253 -83 442 -225 665 -500 179
-220 423 -350 715 -382 133 -14 381 -6 520 18 30 5 77 12 104 15 27 3 51 7 55
9 3 2 31 7 61 11 30 4 57 8 60 10 3 2 26 6 50 10 25 3 64 11 88 16 23 5 58 12
78 15 56 9 111 31 157 63 172 120 194 375 45 523 -53 53 -249 210 -378 303
-52 38 -135 99 -185 135 -321 237 -1468 1048 -2014 1424 -162 112 -285 166
-436 192 -76 13 -205 10 -288 -7z"/>
<path d="M2835 4752 c-108 -18 -174 -48 -430 -194 -121 -69 -236 -135 -255
-146 -44 -24 -944 -539 -985 -562 -16 -10 -59 -34 -93 -54 -164 -93 -264 -198
-331 -348 -65 -143 -62 -92 -62 -1388 0 -646 3 -1197 6 -1225 15 -128 85 -280
176 -379 67 -73 185 -156 264 -185 136 -51 30 -49 2375 -49 2350 0 2237 -3
2376 49 224 84 411 325 440 566 8 72 8 2019 -1 2088 -18 145 -95 297 -205 403
-113 110 -244 174 -420 206 -128 23 -326 92 -467 162 -194 98 -321 207 -438
376 -84 122 -183 209 -318 281 -47 25 -176 71 -232 81 -16 4 -41 9 -55 12 -14
3 -103 6 -198 5 -278 -1 -390 30 -578 156 -204 138 -367 179 -569 145z"/>
</g>
</svg>
